ffmpeg started on 2025-06-15 at 19:42:36
Report written to "D:\Convert\FFMetrics\reports\ssim_report-6.txt"
Log level: 32
Command line:
ffmpeg -hide_banner -nostdin -i "G:\\\xc0\xed\xe8\xec\xe5\\[\xd2\xee\xef]\\\xd1\xea\xe0\xe7\xe0\xed\xe8\xe5 \xee\xe1 \xee\xe1\xf0\xf3\xf7\xe0\xeb\xfc\xed\xfb\xf5 \xea\xee\xeb\xfc\xf6\xe0\xf5\\[DC] Kekkon Yubiwa Monogatari - 03_Telegram_HEVC.mkv" -i "G:\\\xc0\xed\xe8\xec\xe5\\[\xd2\xee\xef]\\\xd1\xea\xe0\xe7\xe0\xed\xe8\xe5 \xee\xe1 \xee\xe1\xf0\xf3\xf7\xe0\xeb\xfc\xed\xfb\xf5 \xea\xee\xeb\xfc\xf6\xe0\xf5\\[DC] Kekkon Yubiwa Monogatari - 03_Telegram.mp4" -lavfi "[0:v]settb=AVTB,setpts=PTS-STARTPTS,format=pix_fmts=yuv420p10,fps=24000/1001,scale=1920:1080:flags=bicubic[main];[1:v]settb=AVTB,setpts=PTS-STARTPTS,format=pix_fmts=yuv420p,fps=24000/1001,scale=1920:1080:flags=bicubic[ref];[main][ref]ssim=eof_action=endall:stats_file='D\\:/Convert/FFMetrics/logs/ssim_logfile-6.txt'" -f null -
Input #0, matroska,webm, from 'G:\Аниме\[Топ]\Сказание об обручальных кольцах\[DC] Kekkon Yubiwa Monogatari - 03_Telegram_HEVC.mkv':
  Metadata:
    COMPATIBLE_BRANDS: isomiso2avc1mp41
    MAJOR_BRAND     : isom
    MINOR_VERSION   : 512
    ENCODER         : Lavf61.7.100
  Duration: 00:23:49.12, start: -0.021000, bitrate: 1163 kb/s
  Stream #0:0: Video: hevc (Main 10), yuv420p10le(tv, bt709, progressive), 1920x1080 [SAR 1:1 DAR 16:9], 23.98 fps, 23.98 tbr, 1k tbn (default)
      Metadata:
        HANDLER_NAME    : VideoHandler
        VENDOR_ID       : [0][0][0][0]
        ENCODER         : Lavc61.19.100 libx265
        BPS             : 967105
        DURATION        : 00:23:46.591708333
        NUMBER_OF_FRAMES: 34204
        NUMBER_OF_BYTES : 172457981
        _STATISTICS_WRITING_APP: mkvpropedit v66.0.0 ('Josie') 64-bit
        _STATISTICS_WRITING_DATE_UTC: 2025-06-15 14:13:19
        _STATISTICS_TAGS: BPS DURATION NUMBER_OF_FRAMES NUMBER_OF_BYTES
  Stream #0:1: Audio: aac (LC), 48000 Hz, stereo, fltp (default)
      Metadata:
        HANDLER_NAME    : SoundHandler
        VENDOR_ID       : [0][0][0][0]
        ENCODER         : Lavc61.19.100 aac
        BPS             : 193909
        DURATION        : 00:23:49.120000000
        NUMBER_OF_FRAMES: 66991
        NUMBER_OF_BYTES : 34640062
        _STATISTICS_WRITING_APP: mkvpropedit v66.0.0 ('Josie') 64-bit
        _STATISTICS_WRITING_DATE_UTC: 2025-06-15 14:13:19
        _STATISTICS_TAGS: BPS DURATION NUMBER_OF_FRAMES NUMBER_OF_BYTES
Input #1, mov,mp4,m4a,3gp,3g2,mj2, from 'G:\Аниме\[Топ]\Сказание об обручальных кольцах\[DC] Kekkon Yubiwa Monogatari - 03_Telegram.mp4':
  Metadata:
    major_brand     : isom
    minor_version   : 512
    compatible_brands: isomiso2avc1mp41
    encoder         : Lavf60.16.100
  Duration: 00:23:49.09, start: 0.000000, bitrate: 3847 kb/s
  Stream #1:0[0x1](und): Video: h264 (High) (avc1 / 0x31637661), yuv420p(tv, bt709, progressive), 1920x1080 [SAR 1:1 DAR 16:9], 3706 kb/s, 23.98 fps, 23.98 tbr, 24k tbn (default)
      Metadata:
        handler_name    : VideoHandler
        vendor_id       : [0][0][0][0]
        encoder         : Lavc60.31.102 h264_qsv
  Stream #1:1[0x2](und): Audio: aac (HE-AACv2) (mp4a / 0x6134706D), 48000 Hz, stereo, fltp, 144 kb/s (default)
      Metadata:
        handler_name    : SoundHandler
        vendor_id       : [0][0][0][0]
Stream mapping:
  Stream #0:0 (hevc) -> settb:default
  Stream #1:0 (h264) -> settb:default
  ssim:default -> Stream #0:0 (wrapped_avframe)
  Stream #0:1 -> #0:1 (aac (native) -> pcm_s16le (native))
Output #0, null, to 'pipe:':
  Metadata:
    COMPATIBLE_BRANDS: isomiso2avc1mp41
    MAJOR_BRAND     : isom
    MINOR_VERSION   : 512
    encoder         : Lavf61.7.100
  Stream #0:0: Video: wrapped_avframe, yuv420p10le(tv, bt709, progressive), 1920x1080 [SAR 1:1 DAR 16:9], q=2-31, 200 kb/s, 23.98 fps, 23.98 tbn
      Metadata:
        encoder         : Lavc61.19.100 wrapped_avframe
  Stream #0:1: Audio: pcm_s16le, 48000 Hz, stereo, s16, 1536 kb/s (default)
      Metadata:
        HANDLER_NAME    : SoundHandler
        VENDOR_ID       : [0][0][0][0]
        _STATISTICS_TAGS: BPS DURATION NUMBER_OF_FRAMES NUMBER_OF_BYTES
        BPS             : 193909
        DURATION        : 00:23:49.120000000
        NUMBER_OF_FRAMES: 66991
        NUMBER_OF_BYTES : 34640062
        _STATISTICS_WRITING_APP: mkvpropedit v66.0.0 ('Josie') 64-bit
        _STATISTICS_WRITING_DATE_UTC: 2025-06-15 14:13:19
        encoder         : Lavc61.19.100 pcm_s16le
frame=  186 fps=0.0 q=-0.0 size=N/A time=00:00:07.75 bitrate=N/A speed=15.2x    frame=  435 fps=420 q=-0.0 size=N/A time=00:00:18.14 bitrate=N/A speed=17.5x    frame=  704 fps=450 q=-0.0 size=N/A time=00:00:29.36 bitrate=N/A speed=18.8x    frame=  962 fps=464 q=-0.0 size=N/A time=00:00:40.12 bitrate=N/A speed=19.3x    frame= 1196 fps=463 q=-0.0 size=N/A time=00:00:49.88 bitrate=N/A speed=19.3x    frame= 1434 fps=462 q=-0.0 size=N/A time=00:00:59.80 bitrate=N/A speed=19.3x    frame= 1680 fps=465 q=-0.0 size=N/A time=00:01:10.07 bitrate=N/A speed=19.4x    frame= 1921 fps=465 q=-0.0 size=N/A time=00:01:20.12 bitrate=N/A speed=19.4x    frame= 2183 fps=468 q=-0.0 size=N/A time=00:01:31.04 bitrate=N/A speed=19.5x    frame= 2451 fps=474 q=-0.0 size=N/A time=00:01:42.22 bitrate=N/A speed=19.8x    frame= 2707 fps=477 q=-0.0 size=N/A time=00:01:52.90 bitrate=N/A speed=19.9x    frame= 2959 fps=477 q=-0.0 size=N/A time=00:02:03.41 bitrate=N/A speed=19.9x    frame= 3188 fps=475 q=-0.0 size=N/A time=00:02:12.96 bitrate=N/A speed=19.8x    frame= 3446 fps=476 q=-0.0 size=N/A time=00:02:23.72 bitrate=N/A speed=19.9x    frame= 3692 fps=477 q=-0.0 size=N/A time=00:02:33.98 bitrate=N/A speed=19.9x    frame= 3868 fps=468 q=-0.0 size=N/A time=00:02:41.32 bitrate=N/A speed=19.5x    frame= 4030 fps=459 q=-0.0 size=N/A time=00:02:48.08 bitrate=N/A speed=19.2x    frame= 4215 fps=454 q=-0.0 size=N/A time=00:02:55.80 bitrate=N/A speed=18.9x    frame= 4402 fps=449 q=-0.0 size=N/A time=00:03:03.60 bitrate=N/A speed=18.7x    frame= 4607 fps=447 q=-0.0 size=N/A time=00:03:12.15 bitrate=N/A speed=18.6x    frame= 4835 fps=446 q=-0.0 size=N/A time=00:03:21.65 bitrate=N/A speed=18.6x    frame= 5046 fps=445 q=-0.0 size=N/A time=00:03:30.46 bitrate=N/A speed=18.5x    frame= 5235 fps=441 q=-0.0 size=N/A time=00:03:38.34 bitrate=N/A speed=18.4x    frame= 5433 fps=439 q=-0.0 size=N/A time=00:03:46.60 bitrate=N/A speed=18.3x    frame= 5589 fps=433 q=-0.0 size=N/A time=00:03:53.10 bitrate=N/A speed=18.1x    frame= 5753 fps=429 q=-0.0 size=N/A time=00:03:59.94 bitrate=N/A speed=17.9x    frame= 5990 fps=430 q=-0.0 size=N/A time=00:04:09.83 bitrate=N/A speed=17.9x    frame= 6193 fps=429 q=-0.0 size=N/A time=00:04:18.29 bitrate=N/A speed=17.9x    frame= 6443 fps=431 q=-0.0 size=N/A time=00:04:28.72 bitrate=N/A speed=  18x    frame= 6707 fps=433 q=-0.0 size=N/A time=00:04:39.73 bitrate=N/A speed=18.1x    frame= 6954 fps=435 q=-0.0 size=N/A time=00:04:50.03 bitrate=N/A speed=18.1x    frame= 7222 fps=438 q=-0.0 size=N/A time=00:05:01.21 bitrate=N/A speed=18.2x    frame= 7489 fps=440 q=-0.0 size=N/A time=00:05:12.35 bitrate=N/A speed=18.3x    frame= 7752 fps=442 q=-0.0 size=N/A time=00:05:23.32 bitrate=N/A speed=18.4x    frame= 8021 fps=444 q=-0.0 size=N/A time=00:05:34.54 bitrate=N/A speed=18.5x    frame= 8238 fps=443 q=-0.0 size=N/A time=00:05:43.59 bitrate=N/A speed=18.5x    frame= 8432 fps=441 q=-0.0 size=N/A time=00:05:51.68 bitrate=N/A speed=18.4x    frame= 8674 fps=442 q=-0.0 size=N/A time=00:06:01.77 bitrate=N/A speed=18.4x    frame= 8876 fps=441 q=-0.0 size=N/A time=00:06:10.20 bitrate=N/A speed=18.4x    frame= 9118 fps=442 q=-0.0 size=N/A time=00:06:20.29 bitrate=N/A speed=18.4x    frame= 9370 fps=443 q=-0.0 size=N/A time=00:06:30.80 bitrate=N/A speed=18.5x    frame= 9594 fps=443 q=-0.0 size=N/A time=00:06:40.14 bitrate=N/A speed=18.5x    frame= 9831 fps=443 q=-0.0 size=N/A time=00:06:50.03 bitrate=N/A speed=18.5x    frame=10042 fps=442 q=-0.0 size=N/A time=00:06:58.83 bitrate=N/A speed=18.4x    frame=10272 fps=442 q=-0.0 size=N/A time=00:07:08.42 bitrate=N/A speed=18.4x    frame=10518 fps=443 q=-0.0 size=N/A time=00:07:18.68 bitrate=N/A speed=18.5x    frame=10763 fps=444 q=-0.0 size=N/A time=00:07:28.90 bitrate=N/A speed=18.5x    frame=10986 fps=443 q=-0.0 size=N/A time=00:07:38.20 bitrate=N/A speed=18.5x    frame=11217 fps=444 q=-0.0 size=N/A time=00:07:47.84 bitrate=N/A speed=18.5x    frame=11468 fps=444 q=-0.0 size=N/A time=00:07:58.31 bitrate=N/A speed=18.5x    frame=11668 fps=443 q=-0.0 size=N/A time=00:08:06.65 bitrate=N/A speed=18.5x    frame=11852 fps=442 q=-0.0 size=N/A time=00:08:14.32 bitrate=N/A speed=18.4x    frame=12072 fps=441 q=-0.0 size=N/A time=00:08:23.50 bitrate=N/A speed=18.4x    frame=12322 fps=442 q=-0.0 size=N/A time=00:08:33.93 bitrate=N/A speed=18.4x    frame=12561 fps=443 q=-0.0 size=N/A time=00:08:43.89 bitrate=N/A speed=18.5x    frame=12804 fps=443 q=-0.0 size=N/A time=00:08:54.03 bitrate=N/A speed=18.5x    frame=13017 fps=443 q=-0.0 size=N/A time=00:09:02.91 bitrate=N/A speed=18.5x    frame=13276 fps=443 q=-0.0 size=N/A time=00:09:13.71 bitrate=N/A speed=18.5x    frame=13532 fps=444 q=-0.0 size=N/A time=00:09:24.39 bitrate=N/A speed=18.5x    frame=13790 fps=445 q=-0.0 size=N/A time=00:09:35.15 bitrate=N/A speed=18.6x    frame=14032 fps=446 q=-0.0 size=N/A time=00:09:45.25 bitrate=N/A speed=18.6x    frame=14222 fps=445 q=-0.0 size=N/A time=00:09:53.17 bitrate=N/A speed=18.5x    frame=14444 fps=444 q=-0.0 size=N/A time=00:10:02.43 bitrate=N/A speed=18.5x    frame=14703 fps=445 q=-0.0 size=N/A time=00:10:13.23 bitrate=N/A speed=18.6x    frame=14951 fps=446 q=-0.0 size=N/A time=00:10:23.58 bitrate=N/A speed=18.6x    frame=15139 fps=444 q=-0.0 size=N/A time=00:10:31.42 bitrate=N/A speed=18.5x    frame=15359 fps=444 q=-0.0 size=N/A time=00:10:40.59 bitrate=N/A speed=18.5x    frame=15618 fps=445 q=-0.0 size=N/A time=00:10:51.40 bitrate=N/A speed=18.6x    frame=15899 fps=446 q=-0.0 size=N/A time=00:11:03.12 bitrate=N/A speed=18.6x    frame=16154 fps=447 q=-0.0 size=N/A time=00:11:13.75 bitrate=N/A speed=18.7x    frame=16388 fps=447 q=-0.0 size=N/A time=00:11:23.51 bitrate=N/A speed=18.7x    frame=16628 fps=447 q=-0.0 size=N/A time=00:11:33.52 bitrate=N/A speed=18.7x    frame=16885 fps=448 q=-0.0 size=N/A time=00:11:44.24 bitrate=N/A speed=18.7x    frame=17134 fps=449 q=-0.0 size=N/A time=00:11:54.63 bitrate=N/A speed=18.7x    frame=17398 fps=450 q=-0.0 size=N/A time=00:12:05.64 bitrate=N/A speed=18.7x    frame=17648 fps=450 q=-0.0 size=N/A time=00:12:16.06 bitrate=N/A speed=18.8x    frame=17907 fps=451 q=-0.0 size=N/A time=00:12:26.87 bitrate=N/A speed=18.8x    frame=18142 fps=451 q=-0.0 size=N/A time=00:12:36.67 bitrate=N/A speed=18.8x    frame=18384 fps=451 q=-0.0 size=N/A time=00:12:46.76 bitrate=N/A speed=18.8x    frame=18639 fps=452 q=-0.0 size=N/A time=00:12:57.40 bitrate=N/A speed=18.8x    frame=18890 fps=452 q=-0.0 size=N/A time=00:13:07.87 bitrate=N/A speed=18.8x    frame=19151 fps=453 q=-0.0 size=N/A time=00:13:18.75 bitrate=N/A speed=18.9x    frame=19391 fps=453 q=-0.0 size=N/A time=00:13:28.76 bitrate=N/A speed=18.9x    frame=19620 fps=453 q=-0.0 size=N/A time=00:13:38.31 bitrate=N/A speed=18.9x    frame=19857 fps=453 q=-0.0 size=N/A time=00:13:48.20 bitrate=N/A speed=18.9x    frame=20111 fps=453 q=-0.0 size=N/A time=00:13:58.79 bitrate=N/A speed=18.9x    frame=20354 fps=453 q=-0.0 size=N/A time=00:14:08.93 bitrate=N/A speed=18.9x    frame=20605 fps=454 q=-0.0 size=N/A time=00:14:19.40 bitrate=N/A speed=18.9x    frame=20855 fps=454 q=-0.0 size=N/A time=00:14:29.82 bitrate=N/A speed=18.9x    frame=21095 fps=454 q=-0.0 size=N/A time=00:14:39.83 bitrate=N/A speed=18.9x    frame=21347 fps=455 q=-0.0 size=N/A time=00:14:50.34 bitrate=N/A speed=  19x    frame=21587 fps=455 q=-0.0 size=N/A time=00:15:00.35 bitrate=N/A speed=  19x    frame=21847 fps=455 q=-0.0 size=N/A time=00:15:11.20 bitrate=N/A speed=  19x    frame=22104 fps=456 q=-0.0 size=N/A time=00:15:21.92 bitrate=N/A speed=  19x    frame=22349 fps=456 q=-0.0 size=N/A time=00:15:32.13 bitrate=N/A speed=  19x    frame=22584 fps=456 q=-0.0 size=N/A time=00:15:41.94 bitrate=N/A speed=  19x    frame=22828 fps=456 q=-0.0 size=N/A time=00:15:52.11 bitrate=N/A speed=  19x    frame=23046 fps=456 q=-0.0 size=N/A time=00:16:01.21 bitrate=N/A speed=  19x    frame=23304 fps=456 q=-0.0 size=N/A time=00:16:11.97 bitrate=N/A speed=  19x    frame=23522 fps=456 q=-0.0 size=N/A time=00:16:21.06 bitrate=N/A speed=  19x    frame=23752 fps=456 q=-0.0 size=N/A time=00:16:30.65 bitrate=N/A speed=  19x    frame=24005 fps=456 q=-0.0 size=N/A time=00:16:41.20 bitrate=N/A speed=  19x    frame=24244 fps=456 q=-0.0 size=N/A time=00:16:51.17 bitrate=N/A speed=  19x    frame=24444 fps=456 q=-0.0 size=N/A time=00:16:59.51 bitrate=N/A speed=  19x    frame=24663 fps=455 q=-0.0 size=N/A time=00:17:08.65 bitrate=N/A speed=  19x    frame=24924 fps=456 q=-0.0 size=N/A time=00:17:19.53 bitrate=N/A speed=  19x    frame=25162 fps=456 q=-0.0 size=N/A time=00:17:29.46 bitrate=N/A speed=  19x    frame=25342 fps=455 q=-0.0 size=N/A time=00:17:36.97 bitrate=N/A speed=  19x    frame=25584 fps=455 q=-0.0 size=N/A time=00:17:47.06 bitrate=N/A speed=  19x    frame=25823 fps=455 q=-0.0 size=N/A time=00:17:57.03 bitrate=N/A speed=  19x    frame=26048 fps=455 q=-0.0 size=N/A time=00:18:06.41 bitrate=N/A speed=  19x    frame=26300 fps=455 q=-0.0 size=N/A time=00:18:16.92 bitrate=N/A speed=  19x    frame=26535 fps=455 q=-0.0 size=N/A time=00:18:26.73 bitrate=N/A speed=  19x    frame=26738 fps=455 q=-0.0 size=N/A time=00:18:35.19 bitrate=N/A speed=  19x    frame=26958 fps=454 q=-0.0 size=N/A time=00:18:44.37 bitrate=N/A speed=  19x    frame=27186 fps=454 q=-0.0 size=N/A time=00:18:53.88 bitrate=N/A speed=18.9x    frame=27422 fps=454 q=-0.0 size=N/A time=00:19:03.72 bitrate=N/A speed=  19x    frame=27667 fps=454 q=-0.0 size=N/A time=00:19:13.94 bitrate=N/A speed=  19x    frame=27899 fps=454 q=-0.0 size=N/A time=00:19:23.62 bitrate=N/A speed=  19x    frame=28129 fps=454 q=-0.0 size=N/A time=00:19:33.21 bitrate=N/A speed=  19x    frame=28376 fps=455 q=-0.0 size=N/A time=00:19:43.51 bitrate=N/A speed=  19x    frame=28615 fps=455 q=-0.0 size=N/A time=00:19:53.48 bitrate=N/A speed=  19x    frame=28865 fps=455 q=-0.0 size=N/A time=00:20:03.91 bitrate=N/A speed=  19x    frame=29124 fps=455 q=-0.0 size=N/A time=00:20:14.71 bitrate=N/A speed=  19x    frame=29372 fps=455 q=-0.0 size=N/A time=00:20:25.05 bitrate=N/A speed=  19x    frame=29588 fps=455 q=-0.0 size=N/A time=00:20:34.06 bitrate=N/A speed=  19x    frame=29821 fps=455 q=-0.0 size=N/A time=00:20:43.78 bitrate=N/A speed=  19x    frame=30063 fps=455 q=-0.0 size=N/A time=00:20:53.87 bitrate=N/A speed=  19x    frame=30307 fps=455 q=-0.0 size=N/A time=00:21:04.05 bitrate=N/A speed=  19x    frame=30530 fps=455 q=-0.0 size=N/A time=00:21:13.35 bitrate=N/A speed=  19x    frame=30743 fps=455 q=-0.0 size=N/A time=00:21:22.23 bitrate=N/A speed=  19x    frame=31008 fps=455 q=-0.0 size=N/A time=00:21:33.29 bitrate=N/A speed=  19x    frame=31251 fps=455 q=-0.0 size=N/A time=00:21:43.42 bitrate=N/A speed=  19x    frame=31516 fps=456 q=-0.0 size=N/A time=00:21:54.47 bitrate=N/A speed=  19x    frame=31770 fps=456 q=-0.0 size=N/A time=00:22:05.07 bitrate=N/A speed=  19x    frame=32037 fps=456 q=-0.0 size=N/A time=00:22:16.20 bitrate=N/A speed=  19x    frame=32232 fps=456 q=-0.0 size=N/A time=00:22:24.34 bitrate=N/A speed=  19x    frame=32428 fps=455 q=-0.0 size=N/A time=00:22:32.51 bitrate=N/A speed=  19x    frame=32642 fps=455 q=-0.0 size=N/A time=00:22:41.44 bitrate=N/A speed=  19x    frame=32851 fps=455 q=-0.0 size=N/A time=00:22:50.16 bitrate=N/A speed=  19x    frame=33079 fps=454 q=-0.0 size=N/A time=00:22:59.66 bitrate=N/A speed=  19x    frame=33286 fps=454 q=-0.0 size=N/A time=00:23:08.30 bitrate=N/A speed=18.9x    frame=33507 fps=454 q=-0.0 size=N/A time=00:23:17.52 bitrate=N/A speed=18.9x    frame=33694 fps=453 q=-0.0 size=N/A time=00:23:25.32 bitrate=N/A speed=18.9x    frame=33868 fps=453 q=-0.0 size=N/A time=00:23:32.57 bitrate=N/A speed=18.9x    frame=34060 fps=452 q=-0.0 size=N/A time=00:23:40.58 bitrate=N/A speed=18.9x    [Parsed_ssim_10 @ 0000020991779940] SSIM Y:0.992594 (21.304183) U:0.994144 (22.323697) V:0.993132 (21.631571) All:0.992942 (21.513136)
[out#0/null @ 000002099178ca80] video:14697KiB audio:267964KiB subtitle:0KiB other streams:0KiB global headers:0KiB muxing overhead: unknown
frame=34204 fps=452 q=-0.0 Lsize=N/A time=00:23:46.59 bitrate=N/A speed=18.8x    
